<mxfile host="app.diagrams.net" agent="Mozilla/5.0 (Windows NT 10.0; Win64; x64) AppleWebKit/537.36 (KHTML, like Gecko) Chrome/131.0.0.0 Safari/537.36" version="24.8.9">
  <diagram name="Page-1" id="zSd8WRL-rrtE5f8lHWPh">
    <mxGraphModel dx="1485" dy="763" grid="1" gridSize="10" guides="1" tooltips="1" connect="1" arrows="1" fold="1" page="1" pageScale="1" pageWidth="850" pageHeight="1100" math="0" shadow="0">
      <root>
        <mxCell id="0" />
        <mxCell id="1" parent="0" />
        <mxCell id="UcVjC_yno5hfW4vr8TvR-3" value="" style="edgeStyle=orthogonalEdgeStyle;rounded=0;orthogonalLoop=1;jettySize=auto;html=1;" edge="1" parent="1" source="UcVjC_yno5hfW4vr8TvR-1" target="UcVjC_yno5hfW4vr8TvR-2">
          <mxGeometry relative="1" as="geometry" />
        </mxCell>
        <mxCell id="UcVjC_yno5hfW4vr8TvR-1" value="START" style="rounded=1;whiteSpace=wrap;html=1;arcSize=50;" vertex="1" parent="1">
          <mxGeometry x="390" y="20" width="100" height="40" as="geometry" />
        </mxCell>
        <mxCell id="UcVjC_yno5hfW4vr8TvR-5" value="" style="edgeStyle=orthogonalEdgeStyle;rounded=0;orthogonalLoop=1;jettySize=auto;html=1;" edge="1" parent="1" source="UcVjC_yno5hfW4vr8TvR-2" target="UcVjC_yno5hfW4vr8TvR-4">
          <mxGeometry relative="1" as="geometry" />
        </mxCell>
        <mxCell id="UcVjC_yno5hfW4vr8TvR-2" value="&quot;Please enter value (a b) : &quot;" style="whiteSpace=wrap;html=1;rounded=1;arcSize=0;" vertex="1" parent="1">
          <mxGeometry x="357.5" y="110" width="165" height="40" as="geometry" />
        </mxCell>
        <mxCell id="UcVjC_yno5hfW4vr8TvR-7" value="" style="edgeStyle=orthogonalEdgeStyle;rounded=0;orthogonalLoop=1;jettySize=auto;html=1;" edge="1" parent="1" source="UcVjC_yno5hfW4vr8TvR-4" target="UcVjC_yno5hfW4vr8TvR-6">
          <mxGeometry relative="1" as="geometry" />
        </mxCell>
        <mxCell id="UcVjC_yno5hfW4vr8TvR-4" value="ใส่ค่าให้กับตัวแปร&amp;nbsp; a และ&amp;nbsp; b" style="shape=parallelogram;perimeter=parallelogramPerimeter;whiteSpace=wrap;html=1;fixedSize=1;rounded=1;arcSize=0;" vertex="1" parent="1">
          <mxGeometry x="352.5" y="180" width="175" height="30" as="geometry" />
        </mxCell>
        <mxCell id="UcVjC_yno5hfW4vr8TvR-9" value="" style="edgeStyle=orthogonalEdgeStyle;rounded=0;orthogonalLoop=1;jettySize=auto;html=1;" edge="1" parent="1" source="UcVjC_yno5hfW4vr8TvR-6" target="UcVjC_yno5hfW4vr8TvR-8">
          <mxGeometry relative="1" as="geometry" />
        </mxCell>
        <mxCell id="UcVjC_yno5hfW4vr8TvR-6" value="ตัวแปร c = a / b" style="whiteSpace=wrap;html=1;rounded=1;arcSize=0;" vertex="1" parent="1">
          <mxGeometry x="390" y="250" width="100" height="30" as="geometry" />
        </mxCell>
        <mxCell id="UcVjC_yno5hfW4vr8TvR-11" value="" style="edgeStyle=orthogonalEdgeStyle;rounded=0;orthogonalLoop=1;jettySize=auto;html=1;" edge="1" parent="1" source="UcVjC_yno5hfW4vr8TvR-8" target="UcVjC_yno5hfW4vr8TvR-10">
          <mxGeometry relative="1" as="geometry" />
        </mxCell>
        <mxCell id="UcVjC_yno5hfW4vr8TvR-8" value="&quot;a = ค่าของตัวแปร a&quot; , &quot;b = ค่าของตัวแปร b&quot;" style="shape=parallelogram;perimeter=parallelogramPerimeter;whiteSpace=wrap;html=1;fixedSize=1;rounded=1;arcSize=0;" vertex="1" parent="1">
          <mxGeometry x="313" y="310" width="255" height="40" as="geometry" />
        </mxCell>
        <mxCell id="UcVjC_yno5hfW4vr8TvR-10" value="&quot;a + b = ค่า a + b&quot;" style="shape=parallelogram;perimeter=parallelogramPerimeter;whiteSpace=wrap;html=1;fixedSize=1;rounded=1;arcSize=0;" vertex="1" parent="1">
          <mxGeometry x="371" y="390" width="140" height="40" as="geometry" />
        </mxCell>
        <mxCell id="UcVjC_yno5hfW4vr8TvR-12" value="&quot;a - b = ค่า a - b&quot;" style="shape=parallelogram;perimeter=parallelogramPerimeter;whiteSpace=wrap;html=1;fixedSize=1;rounded=1;arcSize=0;" vertex="1" parent="1">
          <mxGeometry x="370" y="470" width="140" height="40" as="geometry" />
        </mxCell>
        <mxCell id="UcVjC_yno5hfW4vr8TvR-35" value="" style="edgeStyle=orthogonalEdgeStyle;rounded=0;orthogonalLoop=1;jettySize=auto;html=1;" edge="1" parent="1" source="UcVjC_yno5hfW4vr8TvR-13" target="UcVjC_yno5hfW4vr8TvR-14">
          <mxGeometry relative="1" as="geometry" />
        </mxCell>
        <mxCell id="UcVjC_yno5hfW4vr8TvR-13" value="&quot;a * b = ค่า a * b&quot;" style="shape=parallelogram;perimeter=parallelogramPerimeter;whiteSpace=wrap;html=1;fixedSize=1;rounded=1;arcSize=0;" vertex="1" parent="1">
          <mxGeometry x="370" y="550" width="140" height="40" as="geometry" />
        </mxCell>
        <mxCell id="UcVjC_yno5hfW4vr8TvR-36" value="" style="edgeStyle=orthogonalEdgeStyle;rounded=0;orthogonalLoop=1;jettySize=auto;html=1;" edge="1" parent="1" source="UcVjC_yno5hfW4vr8TvR-14" target="UcVjC_yno5hfW4vr8TvR-15">
          <mxGeometry relative="1" as="geometry" />
        </mxCell>
        <mxCell id="UcVjC_yno5hfW4vr8TvR-14" value="&quot;a / b = ค่า a / b และ b ต้องมีค่ามากกว่า 0&quot;" style="shape=parallelogram;perimeter=parallelogramPerimeter;whiteSpace=wrap;html=1;fixedSize=1;rounded=1;arcSize=0;" vertex="1" parent="1">
          <mxGeometry x="320" y="630" width="240" height="40" as="geometry" />
        </mxCell>
        <mxCell id="UcVjC_yno5hfW4vr8TvR-38" value="" style="edgeStyle=orthogonalEdgeStyle;rounded=0;orthogonalLoop=1;jettySize=auto;html=1;" edge="1" parent="1" source="UcVjC_yno5hfW4vr8TvR-15" target="UcVjC_yno5hfW4vr8TvR-37">
          <mxGeometry relative="1" as="geometry" />
        </mxCell>
        <mxCell id="UcVjC_yno5hfW4vr8TvR-15" value="&quot;a % b = ค่า a % b&quot;" style="shape=parallelogram;perimeter=parallelogramPerimeter;whiteSpace=wrap;html=1;fixedSize=1;rounded=1;arcSize=0;" vertex="1" parent="1">
          <mxGeometry x="370" y="720" width="140" height="40" as="geometry" />
        </mxCell>
        <mxCell id="UcVjC_yno5hfW4vr8TvR-40" value="" style="edgeStyle=orthogonalEdgeStyle;rounded=0;orthogonalLoop=1;jettySize=auto;html=1;" edge="1" parent="1" source="UcVjC_yno5hfW4vr8TvR-37" target="UcVjC_yno5hfW4vr8TvR-39">
          <mxGeometry relative="1" as="geometry" />
        </mxCell>
        <mxCell id="UcVjC_yno5hfW4vr8TvR-37" value="&quot;a++ = ค่า a + 1 &quot;" style="shape=parallelogram;perimeter=parallelogramPerimeter;whiteSpace=wrap;html=1;fixedSize=1;rounded=1;arcSize=0;" vertex="1" parent="1">
          <mxGeometry x="370" y="790" width="140" height="40" as="geometry" />
        </mxCell>
        <mxCell id="UcVjC_yno5hfW4vr8TvR-42" value="" style="edgeStyle=orthogonalEdgeStyle;rounded=0;orthogonalLoop=1;jettySize=auto;html=1;" edge="1" parent="1" source="UcVjC_yno5hfW4vr8TvR-39" target="UcVjC_yno5hfW4vr8TvR-41">
          <mxGeometry relative="1" as="geometry" />
        </mxCell>
        <mxCell id="UcVjC_yno5hfW4vr8TvR-39" value="&quot;a-- = ค่า a-- &quot;" style="shape=parallelogram;perimeter=parallelogramPerimeter;whiteSpace=wrap;html=1;fixedSize=1;rounded=1;arcSize=0;" vertex="1" parent="1">
          <mxGeometry x="370" y="870" width="140" height="40" as="geometry" />
        </mxCell>
        <mxCell id="UcVjC_yno5hfW4vr8TvR-44" value="" style="edgeStyle=orthogonalEdgeStyle;rounded=0;orthogonalLoop=1;jettySize=auto;html=1;" edge="1" parent="1" source="UcVjC_yno5hfW4vr8TvR-41" target="UcVjC_yno5hfW4vr8TvR-43">
          <mxGeometry relative="1" as="geometry" />
        </mxCell>
        <mxCell id="UcVjC_yno5hfW4vr8TvR-41" value="&quot;a&amp;nbsp; += 1 = ค่า a&amp;nbsp; + 1&quot;" style="shape=parallelogram;perimeter=parallelogramPerimeter;whiteSpace=wrap;html=1;fixedSize=1;rounded=1;arcSize=0;" vertex="1" parent="1">
          <mxGeometry x="370" y="940" width="140" height="40" as="geometry" />
        </mxCell>
        <mxCell id="UcVjC_yno5hfW4vr8TvR-46" value="" style="edgeStyle=orthogonalEdgeStyle;rounded=0;orthogonalLoop=1;jettySize=auto;html=1;" edge="1" parent="1" source="UcVjC_yno5hfW4vr8TvR-43" target="UcVjC_yno5hfW4vr8TvR-45">
          <mxGeometry relative="1" as="geometry" />
        </mxCell>
        <mxCell id="UcVjC_yno5hfW4vr8TvR-43" value="&quot;a += b = ค่า a + b&quot;" style="shape=parallelogram;perimeter=parallelogramPerimeter;whiteSpace=wrap;html=1;fixedSize=1;rounded=1;arcSize=0;" vertex="1" parent="1">
          <mxGeometry x="370" y="1020" width="140" height="40" as="geometry" />
        </mxCell>
        <mxCell id="UcVjC_yno5hfW4vr8TvR-48" value="" style="edgeStyle=orthogonalEdgeStyle;rounded=0;orthogonalLoop=1;jettySize=auto;html=1;" edge="1" parent="1" source="UcVjC_yno5hfW4vr8TvR-45" target="UcVjC_yno5hfW4vr8TvR-47">
          <mxGeometry relative="1" as="geometry" />
        </mxCell>
        <mxCell id="UcVjC_yno5hfW4vr8TvR-45" value="&quot;a -= 1 = ค่า a - 1&quot;" style="shape=parallelogram;perimeter=parallelogramPerimeter;whiteSpace=wrap;html=1;fixedSize=1;rounded=1;arcSize=0;" vertex="1" parent="1">
          <mxGeometry x="370" y="1100" width="140" height="40" as="geometry" />
        </mxCell>
        <mxCell id="UcVjC_yno5hfW4vr8TvR-50" value="" style="edgeStyle=orthogonalEdgeStyle;rounded=0;orthogonalLoop=1;jettySize=auto;html=1;" edge="1" parent="1" source="UcVjC_yno5hfW4vr8TvR-47" target="UcVjC_yno5hfW4vr8TvR-49">
          <mxGeometry relative="1" as="geometry" />
        </mxCell>
        <mxCell id="UcVjC_yno5hfW4vr8TvR-47" value="&quot;a -= b = ค่า a - b&quot;" style="shape=parallelogram;perimeter=parallelogramPerimeter;whiteSpace=wrap;html=1;fixedSize=1;rounded=1;arcSize=0;" vertex="1" parent="1">
          <mxGeometry x="370" y="1170" width="140" height="40" as="geometry" />
        </mxCell>
        <mxCell id="UcVjC_yno5hfW4vr8TvR-52" value="" style="edgeStyle=orthogonalEdgeStyle;rounded=0;orthogonalLoop=1;jettySize=auto;html=1;" edge="1" parent="1" source="UcVjC_yno5hfW4vr8TvR-49" target="UcVjC_yno5hfW4vr8TvR-51">
          <mxGeometry relative="1" as="geometry" />
        </mxCell>
        <mxCell id="UcVjC_yno5hfW4vr8TvR-49" value="&quot;a *= 1 = ค่า a * 1&quot;" style="shape=parallelogram;perimeter=parallelogramPerimeter;whiteSpace=wrap;html=1;fixedSize=1;rounded=1;arcSize=0;" vertex="1" parent="1">
          <mxGeometry x="370" y="1250" width="140" height="40" as="geometry" />
        </mxCell>
        <mxCell id="UcVjC_yno5hfW4vr8TvR-54" value="" style="edgeStyle=orthogonalEdgeStyle;rounded=0;orthogonalLoop=1;jettySize=auto;html=1;" edge="1" parent="1" source="UcVjC_yno5hfW4vr8TvR-51" target="UcVjC_yno5hfW4vr8TvR-53">
          <mxGeometry relative="1" as="geometry" />
        </mxCell>
        <mxCell id="UcVjC_yno5hfW4vr8TvR-51" value="&quot;a *= b = ค่า a * b&quot;" style="shape=parallelogram;perimeter=parallelogramPerimeter;whiteSpace=wrap;html=1;fixedSize=1;rounded=1;arcSize=0;" vertex="1" parent="1">
          <mxGeometry x="370" y="1340" width="140" height="40" as="geometry" />
        </mxCell>
        <mxCell id="UcVjC_yno5hfW4vr8TvR-56" value="" style="edgeStyle=orthogonalEdgeStyle;rounded=0;orthogonalLoop=1;jettySize=auto;html=1;" edge="1" parent="1" source="UcVjC_yno5hfW4vr8TvR-53" target="UcVjC_yno5hfW4vr8TvR-55">
          <mxGeometry relative="1" as="geometry" />
        </mxCell>
        <mxCell id="UcVjC_yno5hfW4vr8TvR-53" value="&quot;a %= 1 = ค่า a % 1&quot;" style="shape=parallelogram;perimeter=parallelogramPerimeter;whiteSpace=wrap;html=1;fixedSize=1;rounded=1;arcSize=0;" vertex="1" parent="1">
          <mxGeometry x="370" y="1420" width="140" height="40" as="geometry" />
        </mxCell>
        <mxCell id="UcVjC_yno5hfW4vr8TvR-58" value="" style="edgeStyle=orthogonalEdgeStyle;rounded=0;orthogonalLoop=1;jettySize=auto;html=1;" edge="1" parent="1" source="UcVjC_yno5hfW4vr8TvR-55" target="UcVjC_yno5hfW4vr8TvR-57">
          <mxGeometry relative="1" as="geometry" />
        </mxCell>
        <mxCell id="UcVjC_yno5hfW4vr8TvR-55" value="&quot;a %= b = ค่า a % b&quot;" style="shape=parallelogram;perimeter=parallelogramPerimeter;whiteSpace=wrap;html=1;fixedSize=1;rounded=1;arcSize=0;" vertex="1" parent="1">
          <mxGeometry x="370" y="1500" width="140" height="40" as="geometry" />
        </mxCell>
        <mxCell id="UcVjC_yno5hfW4vr8TvR-60" value="" style="edgeStyle=orthogonalEdgeStyle;rounded=0;orthogonalLoop=1;jettySize=auto;html=1;" edge="1" parent="1" source="UcVjC_yno5hfW4vr8TvR-57" target="UcVjC_yno5hfW4vr8TvR-59">
          <mxGeometry relative="1" as="geometry" />
        </mxCell>
        <mxCell id="UcVjC_yno5hfW4vr8TvR-57" value="&quot;a &amp;amp;&amp;amp; b = ค่า a AND b&quot;" style="shape=parallelogram;perimeter=parallelogramPerimeter;whiteSpace=wrap;html=1;fixedSize=1;rounded=1;arcSize=0;" vertex="1" parent="1">
          <mxGeometry x="370" y="1590" width="140" height="40" as="geometry" />
        </mxCell>
        <mxCell id="UcVjC_yno5hfW4vr8TvR-62" value="" style="edgeStyle=orthogonalEdgeStyle;rounded=0;orthogonalLoop=1;jettySize=auto;html=1;" edge="1" parent="1" source="UcVjC_yno5hfW4vr8TvR-59" target="UcVjC_yno5hfW4vr8TvR-61">
          <mxGeometry relative="1" as="geometry" />
        </mxCell>
        <mxCell id="UcVjC_yno5hfW4vr8TvR-59" value="&quot;a || b = ค่า a OR b&quot;" style="shape=parallelogram;perimeter=parallelogramPerimeter;whiteSpace=wrap;html=1;fixedSize=1;rounded=1;arcSize=0;" vertex="1" parent="1">
          <mxGeometry x="370" y="1660" width="140" height="40" as="geometry" />
        </mxCell>
        <mxCell id="UcVjC_yno5hfW4vr8TvR-61" value="END" style="whiteSpace=wrap;html=1;rounded=1;arcSize=50;" vertex="1" parent="1">
          <mxGeometry x="400" y="1750" width="80" height="30" as="geometry" />
        </mxCell>
      </root>
    </mxGraphModel>
  </diagram>
</mxfile>
